# xmcd
#
# Track frame offsets:
#	150
#	16682
#	34337
#	51262
#	66317
#	83410
#	97882
#	116172
#	124935
#	141480
#	159120
#	176062
#	191140
#	208255
#	222767
#	241042
#
# Disc length: 3331 seconds
#
# Revision: 1
# Processed by: cddbd v1.5.1PL2 Copyright (c) Steve Scherf et al.
# Submitted via: audiograbber 1.83.01
#
DISCID=e00d0110
DTITLE=Variou - Sc3198
DYEAR=1900
DGENRE=Country
TTITLE0=Chestnutt, Mark - Fallin' Never Felt So Good
TTITLE1=Worley, Darryl - When You Need My Love
TTITLE2=Alabama - We Made Love
TTITLE3=Stone, Doug - Suprise
TTITLE4=Montgomery Gentry - Self Made Man
TTITLE5=Ricochet - Do I Love You Enough
TTITLE6=Holy, Steve - Blue Moon
TTITLE7=Wilson, Tim - Wilson, Tim
TTITLE8=Chestnutt, Mark - Fallin' Never Felt So Good (Vocals)
TTITLE9=Worley, Darryl - When You Need My Love (Vocals)
TTITLE10=Alabama - We Made Love (Vocals)
TTITLE11=Stone, Doug - Suprise (Vocals)
TTITLE12=Montgomery Gentry - Self Made Man (Vocals)
TTITLE13=Ricochet - Do I Love You Enough (Vocals)
TTITLE14=Holy, Steve - Blue Moon (Vocals)
TTITLE15=Wilson, Tim - Wilson, Tim (Vocals)
EXTD=
EXTT0=
EXTT1=
EXTT2=
EXTT3=
EXTT4=
EXTT5=
EXTT6=
EXTT7=
EXTT8=
EXTT9=
EXTT10=
EXTT11=
EXTT12=
EXTT13=
EXTT14=
EXTT15=
PLAYORDER=
